# Blender v2.80 (sub 75) OBJ File: ''
# www.blender.org
mtllib car.mtl
o car
v -1.016052 0.100000 1.143957
v -1.016052 -0.000000 0.743957
v -1.016052 -0.000000 1.243957
v -1.016052 0.100000 0.843957
v -1.016052 0.100000 -1.556043
v -1.016052 0.000000 -1.956043
v -1.016052 0.000000 -1.456043
v -1.016052 0.100000 -1.856043
v -1.016052 0.400000 1.143957
v -1.016052 0.400000 0.843957
v -1.016052 0.400000 -1.556043
v -1.016052 0.400000 -1.856043
v -1.016052 0.500000 1.243957
v -1.016052 0.500000 0.743957
v -1.016052 0.500000 -1.456043
v -1.016052 0.500000 -1.956043
v -0.916052 0.400000 1.643957
v -0.916052 0.300000 1.543957
v -0.916052 0.300000 1.643957
v -0.916052 0.400000 1.543957
v -0.916052 0.300000 1.243957
v -0.916052 0.500000 1.243957
v -0.916052 0.500000 0.743957
v -0.916052 0.300000 -1.456043
v -0.916052 0.300000 0.743957
v -0.916052 0.500000 -1.456043
v -0.916052 0.500000 -1.956043
v -0.916052 0.300000 -2.256043
v -0.916052 0.300000 -1.956043
v -0.916052 0.500000 -2.256043
v -0.916052 0.300000 -2.356043
v -0.916052 0.500000 -2.356043
v -0.916052 0.900000 1.643957
v -0.916052 0.900000 0.443957
v -0.916052 0.900000 -1.456043
v -0.916052 0.900000 -2.356043
v -0.916052 1.000000 0.243957
v -0.916052 1.000000 -1.256043
v -0.916052 1.600000 0.243957
v -0.916052 1.600000 -1.256043
v -0.916052 1.800000 0.443957
v -0.916052 1.800000 -1.456043
v 0.683948 0.300000 1.243957
v 0.683948 -0.000000 0.743957
v 0.683948 -0.000000 1.243957
v 0.683948 0.300000 0.743957
v 0.683948 0.300000 -1.356043
v 0.683948 0.000000 -1.856043
v 0.683948 0.000000 -1.356043
v 0.683948 0.300000 -1.856043
v -0.616052 -0.000000 1.243957
v -0.616052 -0.000000 0.743957
v -0.616052 0.300000 1.243957
v -0.616052 0.300000 0.743957
v -0.616052 0.000000 -1.456043
v -0.616052 0.000000 -1.956043
v -0.616052 0.300000 -1.456043
v -0.616052 0.300000 -1.956043
v 0.983949 0.300000 1.643957
v 0.983949 0.300000 1.543957
v 0.983949 0.400000 1.643957
v 0.983949 0.300000 1.243957
v 0.983949 0.400000 1.543957
v 0.983949 0.500000 1.243957
v 0.983949 0.300000 0.743957
v 0.983949 0.300000 -1.356043
v 0.983949 0.500000 0.743957
v 0.983949 0.500000 -1.356043
v 0.983949 0.300000 -1.856043
v 0.983949 0.300000 -2.256043
v 0.983949 0.500000 -1.856043
v 0.983949 0.300000 -2.356043
v 0.983949 0.500000 -2.256043
v 0.983949 0.500000 -2.356043
v 0.983949 0.900000 1.643957
v 0.983949 0.900000 0.443957
v 0.983949 0.900000 -1.456043
v 0.983949 0.900000 -2.356043
v 0.983949 1.000000 0.243957
v 0.983949 1.000000 -1.256043
v 0.983949 1.600000 0.243957
v 0.983949 1.600000 -1.256043
v 0.983949 1.800000 0.443957
v 0.983949 1.800000 -1.456043
v 1.083948 -0.000000 1.243957
v 1.083948 -0.000000 0.743957
v 1.083948 0.100000 1.143957
v 1.083948 0.100000 0.843957
v 1.083948 0.000000 -1.356043
v 1.083948 0.000000 -1.856043
v 1.083948 0.100000 -1.456043
v 1.083948 0.100000 -1.756043
v 1.083948 0.400000 1.143957
v 1.083948 0.400000 0.843957
v 1.083948 0.400000 -1.456043
v 1.083948 0.400000 -1.756043
v 1.083948 0.500000 1.243957
v 1.083948 0.500000 0.743957
v 1.083948 0.500000 -1.356043
v 1.083948 0.500000 -1.856043
v -0.816052 0.400000 1.643957
v -0.916052 0.400000 1.643957
v -0.916052 0.300000 1.643957
v -0.916052 0.900000 1.643957
v -0.816052 0.700000 1.643957
v -0.516052 0.400000 1.643957
v -0.516052 0.700000 1.643957
v -0.316052 0.400000 1.643957
v -0.316052 0.700000 1.643957
v 0.383948 0.400000 1.643957
v 0.383948 0.700000 1.643957
v 0.583948 0.400000 1.643957
v 0.583948 0.700000 1.643957
v 0.883948 0.400000 1.643957
v 0.883948 0.700000 1.643957
v 0.983949 0.300000 1.643957
v 0.983949 0.400000 1.643957
v 0.983949 0.900000 1.643957
v -0.916052 0.300000 1.243957
v -1.016052 0.500000 1.243957
v -1.016052 -0.000000 1.243957
v -0.916052 0.500000 1.243957
v -0.616052 -0.000000 1.243957
v -0.616052 0.300000 1.243957
v 0.983949 0.300000 1.243957
v 0.683948 0.300000 1.243957
v 0.683948 -0.000000 1.243957
v 1.083948 -0.000000 1.243957
v 0.983949 0.500000 1.243957
v 1.083948 0.500000 1.243957
v -0.716052 1.000000 0.443957
v -0.916052 1.800000 0.443957
v -0.916052 0.900000 0.443957
v -0.716052 1.600000 0.443957
v 0.783948 1.000000 0.443957
v 0.783948 1.600000 0.443957
v 0.983949 0.900000 0.443957
v 0.983949 1.800000 0.443957
v 0.983949 0.300000 -1.356043
v 0.683948 0.300000 -1.356043
v 0.683948 0.000000 -1.356043
v 1.083948 0.000000 -1.356043
v 0.983949 0.500000 -1.356043
v 1.083948 0.500000 -1.356043
v -0.916052 0.300000 -1.456043
v -1.016052 0.500000 -1.456043
v -1.016052 0.000000 -1.456043
v -0.916052 0.500000 -1.456043
v -0.616052 0.000000 -1.456043
v -0.616052 0.300000 -1.456043
v -1.016052 -0.000000 0.743957
v -1.016052 0.500000 0.743957
v -0.916052 0.300000 0.743957
v -0.916052 0.500000 0.743957
v -0.616052 -0.000000 0.743957
v -0.616052 0.300000 0.743957
v 0.683948 -0.000000 0.743957
v 0.683948 0.300000 0.743957
v 0.983949 0.300000 0.743957
v 1.083948 -0.000000 0.743957
v 0.983949 0.500000 0.743957
v 1.083948 0.500000 0.743957
v -0.916052 0.900000 -1.456043
v -0.916052 1.800000 -1.456043
v -0.716052 1.000000 -1.456043
v -0.716052 1.600000 -1.456043
v 0.783948 1.000000 -1.456043
v 0.783948 1.600000 -1.456043
v 0.983949 0.900000 -1.456043
v 0.983949 1.800000 -1.456043
v 0.683948 0.000000 -1.856043
v 0.683948 0.300000 -1.856043
v 0.983949 0.300000 -1.856043
v 1.083948 0.000000 -1.856043
v 0.983949 0.500000 -1.856043
v 1.083948 0.500000 -1.856043
v -1.016052 0.000000 -1.956043
v -1.016052 0.500000 -1.956043
v -0.916052 0.300000 -1.956043
v -0.916052 0.500000 -1.956043
v -0.616052 0.000000 -1.956043
v -0.616052 0.300000 -1.956043
v -0.916052 0.300000 -2.356043
v -0.916052 0.500000 -2.356043
v -0.816052 0.400000 -2.356043
v -0.916052 0.900000 -2.356043
v -0.816052 0.500000 -2.356043
v -0.816052 0.700000 -2.356043
v -0.516052 0.400000 -2.356043
v -0.516052 0.700000 -2.356043
v 0.583948 0.400000 -2.356043
v 0.583948 0.700000 -2.356043
v 0.883948 0.400000 -2.356043
v 0.883948 0.500000 -2.356043
v 0.883948 0.700000 -2.356043
v 0.983949 0.300000 -2.356043
v 0.983949 0.500000 -2.356043
v 0.983949 0.900000 -2.356043
v -1.016052 -0.000000 0.743957
v -0.616052 -0.000000 1.243957
v -1.016052 -0.000000 1.243957
v -0.616052 -0.000000 0.743957
v 0.683948 -0.000000 0.743957
v 1.083948 -0.000000 1.243957
v 0.683948 -0.000000 1.243957
v 1.083948 -0.000000 0.743957
v 0.683948 0.000000 -1.856043
v 1.083948 0.000000 -1.356043
v 0.683948 0.000000 -1.356043
v 1.083948 0.000000 -1.856043
v -1.016052 0.000000 -1.956043
v -0.616052 0.000000 -1.456043
v -1.016052 0.000000 -1.456043
v -0.616052 0.000000 -1.956043
v -0.916052 0.300000 1.543957
v 0.983949 0.300000 1.643957
v -0.916052 0.300000 1.643957
v 0.983949 0.300000 1.543957
v -0.916052 0.300000 1.243957
v -0.616052 0.300000 1.243957
v 0.683948 0.300000 1.243957
v 0.983949 0.300000 1.243957
v -0.616052 0.300000 0.743957
v 0.683948 0.300000 0.743957
v 0.683948 0.300000 -1.356043
v -0.916052 0.300000 0.743957
v 0.983949 0.300000 0.743957
v 0.983949 0.300000 -1.356043
v -0.916052 0.300000 -1.456043
v -0.616052 0.300000 -1.456043
v 0.683948 0.300000 -1.856043
v -0.616052 0.300000 -1.956043
v 0.983949 0.300000 -1.856043
v -0.916052 0.300000 -2.256043
v -0.916052 0.300000 -1.956043
v 0.983949 0.300000 -2.256043
v -0.916052 0.300000 -2.356043
v 0.983949 0.300000 -2.356043
v -1.016052 0.500000 1.243957
v -0.916052 0.500000 1.243957
v -1.016052 0.500000 0.743957
v -0.916052 0.500000 0.743957
v 0.983949 0.500000 1.243957
v 1.083948 0.500000 1.243957
v 0.983949 0.500000 0.743957
v 1.083948 0.500000 0.743957
v 0.983949 0.500000 -1.356043
v 1.083948 0.500000 -1.356043
v 0.983949 0.500000 -1.856043
v 1.083948 0.500000 -1.856043
v -1.016052 0.500000 -1.456043
v -0.916052 0.500000 -1.456043
v -1.016052 0.500000 -1.956043
v -0.916052 0.500000 -1.956043
v -0.916052 0.900000 1.643957
v 0.983949 0.900000 1.643957
v -0.916052 0.900000 0.443957
v 0.983949 0.900000 0.443957
v -0.916052 0.900000 -1.456043
v 0.983949 0.900000 -1.456043
v -0.916052 0.900000 -2.356043
v 0.983949 0.900000 -2.356043
v -0.916052 1.800000 0.443957
v 0.983949 1.800000 0.443957
v -0.916052 1.800000 -1.456043
v 0.983949 1.800000 -1.456043
vt 0.994141 0.500000
vt 0.994141 0.500000
vt 0.994141 0.500000
vt 0.994141 0.500000
vt 0.994141 0.500000
vt 0.994141 0.500000
vt 0.994141 0.500000
vt 0.994141 0.500000
vt 0.994141 0.500000
vt 0.966797 0.500000
vt 0.966797 0.500000
vt 0.966797 0.500000
vt 0.994141 0.500000
vt 0.966797 0.500000
vt 0.966797 0.500000
vt 0.966797 0.500000
vt 0.966797 0.500000
vt 0.994141 0.500000
vt 0.994141 0.500000
vt 0.966797 0.500000
vt 0.994141 0.500000
vt 0.994141 0.500000
vt 0.994141 0.500000
vt 0.994141 0.500000
vt 0.986328 0.500000
vt 0.986328 0.500000
vt 0.986328 0.500000
vt 0.845703 0.500000
vt 0.845703 0.500000
vt 0.845703 0.500000
vt 0.986328 0.500000
vt 0.845703 0.500000
vt 0.845703 0.500000
vt 0.845703 0.500000
vt 0.845703 0.500000
vt 0.845703 0.500000
vt 0.845703 0.500000
vt 0.845703 0.500000
vt 0.845703 0.500000
vt 0.845703 0.500000
vt 0.986328 0.500000
vt 0.986328 0.500000
vt 0.986328 0.500000
vt 0.845703 0.500000
vt 0.986328 0.500000
vt 0.845703 0.500000
vt 0.845703 0.500000
vt 0.845703 0.500000
vt 0.845703 0.500000
vt 0.845703 0.500000
vt 0.845703 0.500000
vt 0.845703 0.500000
vt 0.845703 0.500000
vt 0.751953 0.500000
vt 0.751953 0.500000
vt 0.751953 0.500000
vt 0.845703 0.500000
vt 0.751953 0.500000
vt 0.845703 0.500000
vt 0.845703 0.500000
vt 0.994141 0.500000
vt 0.994141 0.500000
vt 0.994141 0.500000
vt 0.994141 0.500000
vt 0.994141 0.500000
vt 0.994141 0.500000
vt 0.994141 0.500000
vt 0.994141 0.500000
vt 0.994141 0.500000
vt 0.994141 0.500000
vt 0.994141 0.500000
vt 0.994141 0.500000
vt 0.994141 0.500000
vt 0.994141 0.500000
vt 0.994141 0.500000
vt 0.994141 0.500000
vt 0.986328 0.500000
vt 0.986328 0.500000
vt 0.986328 0.500000
vt 0.845703 0.500000
vt 0.845703 0.500000
vt 0.845703 0.500000
vt 0.986328 0.500000
vt 0.845703 0.500000
vt 0.845703 0.500000
vt 0.845703 0.500000
vt 0.845703 0.500000
vt 0.845703 0.500000
vt 0.845703 0.500000
vt 0.845703 0.500000
vt 0.845703 0.500000
vt 0.845703 0.500000
vt 0.986328 0.500000
vt 0.986328 0.500000
vt 0.986328 0.500000
vt 0.845703 0.500000
vt 0.986328 0.500000
vt 0.845703 0.500000
vt 0.845703 0.500000
vt 0.845703 0.500000
vt 0.845703 0.500000
vt 0.845703 0.500000
vt 0.845703 0.500000
vt 0.845703 0.500000
vt 0.845703 0.500000
vt 0.751953 0.500000
vt 0.751953 0.500000
vt 0.751953 0.500000
vt 0.845703 0.500000
vt 0.751953 0.500000
vt 0.845703 0.500000
vt 0.845703 0.500000
vt 0.994141 0.500000
vt 0.994141 0.500000
vt 0.994141 0.500000
vt 0.994141 0.500000
vt 0.994141 0.500000
vt 0.994141 0.500000
vt 0.994141 0.500000
vt 0.994141 0.500000
vt 0.994141 0.500000
vt 0.966797 0.500000
vt 0.966797 0.500000
vt 0.966797 0.500000
vt 0.994141 0.500000
vt 0.966797 0.500000
vt 0.966797 0.500000
vt 0.966797 0.500000
vt 0.966797 0.500000
vt 0.994141 0.500000
vt 0.994141 0.500000
vt 0.966797 0.500000
vt 0.994141 0.500000
vt 0.994141 0.500000
vt 0.994141 0.500000
vt 0.994141 0.500000
vt 0.986328 0.500000
vt 0.986328 0.500000
vt 0.986328 0.500000
vt 0.845703 0.500000
vt 0.845703 0.500000
vt 0.845703 0.500000
vt 0.845703 0.500000
vt 0.986328 0.500000
vt 0.958984 0.500000
vt 0.958984 0.500000
vt 0.958984 0.500000
vt 0.845703 0.500000
vt 0.958984 0.500000
vt 0.986328 0.500000
vt 0.845703 0.500000
vt 0.845703 0.500000
vt 0.845703 0.500000
vt 0.986328 0.500000
vt 0.986328 0.500000
vt 0.845703 0.500000
vt 0.986328 0.500000
vt 0.986328 0.500000
vt 0.845703 0.500000
vt 0.845703 0.500000
vt 0.845703 0.500000
vt 0.986328 0.500000
vt 0.958984 0.500000
vt 0.958984 0.500000
vt 0.958984 0.500000
vt 0.845703 0.500000
vt 0.958984 0.500000
vt 0.986328 0.500000
vt 0.845703 0.500000
vt 0.845703 0.500000
vt 0.986328 0.500000
vt 0.845703 0.500000
vt 0.994141 0.500000
vt 0.994141 0.500000
vt 0.994141 0.500000
vt 0.994141 0.500000
vt 0.994141 0.500000
vt 0.994141 0.500000
vt 0.994141 0.500000
vt 0.994141 0.500000
vt 0.994141 0.500000
vt 0.994141 0.500000
vt 0.994141 0.500000
vt 0.994141 0.500000
vt 0.845703 0.500000
vt 0.845703 0.500000
vt 0.845703 0.500000
vt 0.845703 0.500000
vt 0.845703 0.500000
vt 0.751953 0.500000
vt 0.751953 0.500000
vt 0.751953 0.500000
vt 0.845703 0.500000
vt 0.751953 0.500000
vt 0.845703 0.500000
vt 0.845703 0.500000
vt 0.994141 0.500000
vt 0.994141 0.500000
vt 0.994141 0.500000
vt 0.994141 0.500000
vt 0.994141 0.500000
vt 0.994141 0.500000
vt 0.994141 0.500000
vt 0.994141 0.500000
vt 0.994141 0.500000
vt 0.994141 0.500000
vt 0.994141 0.500000
vt 0.994141 0.500000
vt 0.994141 0.500000
vt 0.994141 0.500000
vt 0.994141 0.500000
vt 0.994141 0.500000
vt 0.994141 0.500000
vt 0.994141 0.500000
vt 0.994141 0.500000
vt 0.994141 0.500000
vt 0.994141 0.500000
vt 0.994141 0.500000
vt 0.994141 0.500000
vt 0.994141 0.500000
vt 0.845703 0.500000
vt 0.845703 0.500000
vt 0.845703 0.500000
vt 0.845703 0.500000
vt 0.845703 0.500000
vt 0.751953 0.500000
vt 0.751953 0.500000
vt 0.751953 0.500000
vt 0.845703 0.500000
vt 0.751953 0.500000
vt 0.845703 0.500000
vt 0.845703 0.500000
vt 0.994141 0.500000
vt 0.994141 0.500000
vt 0.994141 0.500000
vt 0.994141 0.500000
vt 0.994141 0.500000
vt 0.994141 0.500000
vt 0.994141 0.500000
vt 0.994141 0.500000
vt 0.994141 0.500000
vt 0.994141 0.500000
vt 0.994141 0.500000
vt 0.994141 0.500000
vt 0.986328 0.500000
vt 0.986328 0.500000
vt 0.986328 0.500000
vt 0.845703 0.500000
vt 0.845703 0.500000
vt 0.845703 0.500000
vt 0.986328 0.500000
vt 0.845703 0.500000
vt 0.986328 0.500000
vt 0.958984 0.500000
vt 0.958984 0.500000
vt 0.958984 0.500000
vt 0.958984 0.500000
vt 0.845703 0.500000
vt 0.958984 0.500000
vt 0.986328 0.500000
vt 0.845703 0.500000
vt 0.845703 0.500000
vt 0.845703 0.500000
vt 0.986328 0.500000
vt 0.958984 0.500000
vt 0.958984 0.500000
vt 0.958984 0.500000
vt 0.958984 0.500000
vt 0.845703 0.500000
vt 0.958984 0.500000
vt 0.986328 0.500000
vt 0.986328 0.500000
vt 0.845703 0.500000
vt 0.845703 0.500000
vt 0.986328 0.500000
vt 0.845703 0.500000
vt 0.994141 0.500000
vt 0.994141 0.500000
vt 0.994141 0.500000
vt 0.994141 0.500000
vt 0.994141 0.500000
vt 0.994141 0.500000
vt 0.994141 0.500000
vt 0.994141 0.500000
vt 0.994141 0.500000
vt 0.994141 0.500000
vt 0.994141 0.500000
vt 0.994141 0.500000
vt 0.994141 0.500000
vt 0.994141 0.500000
vt 0.994141 0.500000
vt 0.994141 0.500000
vt 0.986328 0.500000
vt 0.986328 0.500000
vt 0.986328 0.500000
vt 0.986328 0.500000
vt 0.845703 0.500000
vt 0.845703 0.500000
vt 0.845703 0.500000
vt 0.845703 0.500000
vt 0.845703 0.500000
vt 0.845703 0.500000
vt 0.845703 0.500000
vt 0.845703 0.500000
vt 0.845703 0.500000
vt 0.845703 0.500000
vt 0.845703 0.500000
vt 0.845703 0.500000
vt 0.845703 0.500000
vt 0.845703 0.500000
vt 0.845703 0.500000
vt 0.845703 0.500000
vt 0.845703 0.500000
vt 0.845703 0.500000
vt 0.845703 0.500000
vt 0.845703 0.500000
vt 0.986328 0.500000
vt 0.986328 0.500000
vt 0.986328 0.500000
vt 0.986328 0.500000
vt 0.994141 0.500000
vt 0.994141 0.500000
vt 0.994141 0.500000
vt 0.994141 0.500000
vt 0.994141 0.500000
vt 0.994141 0.500000
vt 0.994141 0.500000
vt 0.994141 0.500000
vt 0.994141 0.500000
vt 0.994141 0.500000
vt 0.994141 0.500000
vt 0.994141 0.500000
vt 0.994141 0.500000
vt 0.994141 0.500000
vt 0.994141 0.500000
vt 0.994141 0.500000
vt 0.845703 0.500000
vt 0.845703 0.500000
vt 0.845703 0.500000
vt 0.845703 0.500000
vt 0.845703 0.500000
vt 0.845703 0.500000
vt 0.845703 0.500000
vt 0.845703 0.500000
vt 0.845703 0.500000
vt 0.845703 0.500000
vt 0.845703 0.500000
vt 0.845703 0.500000
vn -1.0000 0.0000 0.0000
vn 1.0000 0.0000 0.0000
vn 0.0000 -0.0000 1.0000
vn 0.0000 0.0000 -1.0000
vn 0.0000 -1.0000 -0.0000
vn 0.0000 1.0000 0.0000
usemtl palette
s 1
f 1/1/1 2/2/1 3/3/1
f 4/4/1 2/2/1 1/1/1
f 5/5/1 6/6/1 7/7/1
f 8/8/1 6/6/1 5/5/1
f 9/9/1 1/1/1 3/3/1
f 9/10/1 4/11/1 1/12/1
f 10/13/1 2/2/1 4/4/1
f 10/14/1 4/11/1 9/10/1
f 11/15/1 8/16/1 5/17/1
f 11/18/1 5/5/1 7/7/1
f 12/19/1 6/6/1 8/8/1
f 12/20/1 8/16/1 11/15/1
f 13/21/1 9/9/1 3/3/1
f 13/21/1 10/13/1 9/9/1
f 14/22/1 2/2/1 10/13/1
f 14/22/1 10/13/1 13/21/1
f 15/23/1 11/18/1 7/7/1
f 15/23/1 12/19/1 11/18/1
f 16/24/1 6/6/1 12/19/1
f 16/24/1 12/19/1 15/23/1
f 17/25/1 18/26/1 19/27/1
f 20/28/1 21/29/1 18/30/1
f 20/31/1 18/26/1 17/25/1
f 22/32/1 20/28/1 17/33/1
f 22/32/1 21/29/1 20/28/1
f 23/34/1 24/35/1 25/36/1
f 26/37/1 24/35/1 23/34/1
f 27/38/1 28/39/1 29/40/1
f 30/41/1 31/42/1 28/43/1
f 30/44/1 28/39/1 27/38/1
f 32/45/1 31/42/1 30/41/1
f 33/46/1 27/38/1 26/37/1
f 33/46/1 22/32/1 17/33/1
f 33/46/1 32/47/1 30/44/1
f 33/46/1 30/44/1 27/38/1
f 33/46/1 26/37/1 23/34/1
f 33/46/1 23/34/1 22/32/1
f 34/48/1 32/47/1 33/46/1
f 35/49/1 32/47/1 34/48/1
f 36/50/1 32/47/1 35/49/1
f 37/51/1 35/49/1 34/48/1
f 38/52/1 35/49/1 37/51/1
f 39/53/1 37/51/1 34/48/1
f 39/54/1 38/55/1 37/56/1
f 40/57/1 35/49/1 38/52/1
f 40/58/1 38/55/1 39/54/1
f 41/59/1 39/53/1 34/48/1
f 41/59/1 40/57/1 39/53/1
f 42/60/1 35/49/1 40/57/1
f 42/60/1 40/57/1 41/59/1
f 43/61/1 44/62/1 45/63/1
f 46/64/1 44/62/1 43/61/1
f 47/65/1 48/66/1 49/67/1
f 50/68/1 48/66/1 47/65/1
f 51/69/2 52/70/2 53/71/2
f 53/71/2 52/70/2 54/72/2
f 55/73/2 56/74/2 57/75/2
f 57/75/2 56/74/2 58/76/2
f 59/77/2 60/78/2 61/79/2
f 60/80/2 62/81/2 63/82/2
f 61/79/2 60/78/2 63/83/2
f 61/84/2 63/82/2 64/85/2
f 63/82/2 62/81/2 64/85/2
f 65/86/2 66/87/2 67/88/2
f 67/88/2 66/87/2 68/89/2
f 69/90/2 70/91/2 71/92/2
f 70/93/2 72/94/2 73/95/2
f 71/92/2 70/91/2 73/96/2
f 73/95/2 72/94/2 74/97/2
f 68/89/2 71/92/2 75/98/2
f 61/84/2 64/85/2 75/98/2
f 73/96/2 74/99/2 75/98/2
f 71/92/2 73/96/2 75/98/2
f 67/88/2 68/89/2 75/98/2
f 64/85/2 67/88/2 75/98/2
f 75/98/2 74/99/2 76/100/2
f 76/100/2 74/99/2 77/101/2
f 77/101/2 74/99/2 78/102/2
f 76/100/2 77/101/2 79/103/2
f 79/103/2 77/101/2 80/104/2
f 76/100/2 79/103/2 81/105/2
f 79/106/2 80/107/2 81/108/2
f 80/104/2 77/101/2 82/109/2
f 81/108/2 80/107/2 82/110/2
f 76/100/2 81/105/2 83/111/2
f 81/105/2 82/109/2 83/111/2
f 82/109/2 77/101/2 84/112/2
f 83/111/2 82/109/2 84/112/2
f 85/113/2 86/114/2 87/115/2
f 87/115/2 86/114/2 88/116/2
f 89/117/2 90/118/2 91/119/2
f 91/119/2 90/118/2 92/120/2
f 85/113/2 87/115/2 93/121/2
f 87/122/2 88/123/2 93/124/2
f 88/116/2 86/114/2 94/125/2
f 93/124/2 88/123/2 94/126/2
f 91/127/2 92/128/2 95/129/2
f 89/117/2 91/119/2 95/130/2
f 92/120/2 90/118/2 96/131/2
f 95/129/2 92/128/2 96/132/2
f 85/113/2 93/121/2 97/133/2
f 93/121/2 94/125/2 97/133/2
f 94/125/2 86/114/2 98/134/2
f 97/133/2 94/125/2 98/134/2
f 89/117/2 95/130/2 99/135/2
f 95/130/2 96/131/2 99/135/2
f 96/131/2 90/118/2 100/136/2
f 99/135/2 96/131/2 100/136/2
f 101/137/3 102/138/3 103/139/3
f 101/140/3 104/141/3 102/142/3
f 105/143/3 104/141/3 101/140/3
f 106/144/3 101/137/3 103/139/3
f 106/145/3 105/146/3 101/147/3
f 107/148/3 104/141/3 105/143/3
f 107/149/3 105/146/3 106/145/3
f 108/150/3 106/144/3 103/139/3
f 108/151/3 107/148/3 106/152/3
f 109/153/3 104/141/3 107/148/3
f 109/153/3 107/148/3 108/151/3
f 110/154/3 108/150/3 103/139/3
f 110/154/3 109/155/3 108/150/3
f 111/156/3 104/141/3 109/153/3
f 111/157/3 109/155/3 110/154/3
f 112/158/3 110/154/3 103/139/3
f 112/159/3 111/156/3 110/160/3
f 113/161/3 104/141/3 111/156/3
f 113/161/3 111/156/3 112/159/3
f 114/162/3 112/158/3 103/139/3
f 114/163/3 113/164/3 112/165/3
f 115/166/3 104/141/3 113/161/3
f 115/167/3 113/164/3 114/163/3
f 116/168/3 114/162/3 103/139/3
f 117/169/3 115/166/3 114/170/3
f 117/171/3 114/162/3 116/168/3
f 118/172/3 104/141/3 115/166/3
f 118/172/3 115/166/3 117/169/3
f 119/173/3 120/174/3 121/175/3
f 122/176/3 120/174/3 119/173/3
f 123/177/3 119/173/3 121/175/3
f 124/178/3 119/173/3 123/177/3
f 125/179/3 126/180/3 127/181/3
f 128/182/3 125/179/3 127/181/3
f 128/182/3 129/183/3 125/179/3
f 130/184/3 129/183/3 128/182/3
f 131/185/3 132/186/3 133/187/3
f 134/188/3 132/186/3 131/185/3
f 135/189/3 131/185/3 133/187/3
f 135/190/3 134/191/3 131/192/3
f 136/193/3 132/186/3 134/188/3
f 136/194/3 134/191/3 135/190/3
f 137/195/3 135/189/3 133/187/3
f 137/195/3 136/193/3 135/189/3
f 138/196/3 132/186/3 136/193/3
f 138/196/3 136/193/3 137/195/3
f 139/197/3 140/198/3 141/199/3
f 142/200/3 139/197/3 141/199/3
f 142/200/3 143/201/3 139/197/3
f 144/202/3 143/201/3 142/200/3
f 145/203/3 146/204/3 147/205/3
f 148/206/3 146/204/3 145/203/3
f 149/207/3 145/203/3 147/205/3
f 150/208/3 145/203/3 149/207/3
f 151/209/4 152/210/4 153/211/4
f 153/211/4 152/210/4 154/212/4
f 151/209/4 153/211/4 155/213/4
f 155/213/4 153/211/4 156/214/4
f 157/215/4 158/216/4 159/217/4
f 157/215/4 159/217/4 160/218/4
f 159/217/4 161/219/4 160/218/4
f 160/218/4 161/219/4 162/220/4
f 163/221/4 164/222/4 165/223/4
f 165/223/4 164/222/4 166/224/4
f 163/221/4 165/223/4 167/225/4
f 165/226/4 166/227/4 167/228/4
f 166/224/4 164/222/4 168/229/4
f 167/228/4 166/227/4 168/230/4
f 163/221/4 167/225/4 169/231/4
f 167/225/4 168/229/4 169/231/4
f 168/229/4 164/222/4 170/232/4
f 169/231/4 168/229/4 170/232/4
f 171/233/4 172/234/4 173/235/4
f 171/233/4 173/235/4 174/236/4
f 173/235/4 175/237/4 174/236/4
f 174/236/4 175/237/4 176/238/4
f 177/239/4 178/240/4 179/241/4
f 179/241/4 178/240/4 180/242/4
f 177/239/4 179/241/4 181/243/4
f 181/243/4 179/241/4 182/244/4
f 183/245/4 184/246/4 185/247/4
f 184/248/4 186/249/4 187/250/4
f 185/247/4 184/246/4 187/251/4
f 187/250/4 186/249/4 188/252/4
f 183/245/4 185/247/4 189/253/4
f 185/254/4 187/255/4 189/256/4
f 187/255/4 188/257/4 189/256/4
f 188/252/4 186/249/4 190/258/4
f 189/256/4 188/257/4 190/259/4
f 183/245/4 189/253/4 191/260/4
f 189/261/4 190/258/4 191/262/4
f 190/258/4 186/249/4 192/263/4
f 191/262/4 190/258/4 192/263/4
f 183/245/4 191/260/4 193/264/4
f 191/265/4 192/266/4 193/267/4
f 193/267/4 192/266/4 194/268/4
f 192/263/4 186/249/4 195/269/4
f 194/268/4 192/266/4 195/270/4
f 193/264/4 194/271/4 196/272/4
f 183/245/4 193/264/4 196/272/4
f 194/273/4 195/269/4 197/274/4
f 196/272/4 194/271/4 197/275/4
f 195/269/4 186/249/4 198/276/4
f 197/274/4 195/269/4 198/276/4
f 199/277/5 200/278/5 201/279/5
f 202/280/5 200/278/5 199/277/5
f 203/281/5 204/282/5 205/283/5
f 206/284/5 204/282/5 203/281/5
f 207/285/5 208/286/5 209/287/5
f 210/288/5 208/286/5 207/285/5
f 211/289/5 212/290/5 213/291/5
f 214/292/5 212/290/5 211/289/5
f 215/293/5 216/294/5 217/295/5
f 218/296/5 216/294/5 215/293/5
f 219/297/5 218/298/5 215/299/5
f 220/300/5 218/298/5 219/297/5
f 221/301/5 218/298/5 220/300/5
f 222/302/5 218/298/5 221/301/5
f 223/303/5 221/301/5 220/300/5
f 224/304/5 221/301/5 223/303/5
f 225/305/5 223/303/5 226/306/5
f 225/305/5 227/307/5 224/304/5
f 225/305/5 224/304/5 223/303/5
f 228/308/5 227/307/5 225/305/5
f 229/309/5 225/305/5 226/306/5
f 230/310/5 225/305/5 229/309/5
f 231/311/5 225/305/5 230/310/5
f 232/312/5 231/311/5 230/310/5
f 232/312/5 233/313/5 231/311/5
f 234/314/5 232/312/5 235/315/5
f 236/316/5 233/313/5 232/312/5
f 236/316/5 232/312/5 234/314/5
f 237/317/5 236/318/5 234/319/5
f 238/320/5 236/318/5 237/317/5
f 239/321/6 240/322/6 241/323/6
f 241/323/6 240/322/6 242/324/6
f 243/325/6 244/326/6 245/327/6
f 245/327/6 244/326/6 246/328/6
f 247/329/6 248/330/6 249/331/6
f 249/331/6 248/330/6 250/332/6
f 251/333/6 252/334/6 253/335/6
f 253/335/6 252/334/6 254/336/6
f 255/337/6 256/338/6 257/339/6
f 257/339/6 256/338/6 258/340/6
f 259/341/6 260/342/6 261/343/6
f 261/343/6 260/342/6 262/344/6
f 263/345/6 264/346/6 265/347/6
f 265/347/6 264/346/6 266/348/6
